<?xml version="1.0" encoding="UTF-8" standalone="no"?><!DOCTYPE svg PUBLIC "-//W3C//DTD SVG 1.1//EN" "http://www.w3.org/Graphics/SVG/1.1/DTD/svg11.dtd"><svg width="100%" height="100%" viewBox="0 0 1000 1000" version="1.1" xmlns="http://www.w3.org/2000/svg" xmlns:xlink="http://www.w3.org/1999/xlink" xml:space="preserve" xmlns:serif="http://www.serif.com/" style="fill-rule:evenodd;clip-rule:evenodd;stroke-linejoin:round;stroke-miterlimit:1.41421;"><g><path d="M59.103,454.492c22.515,-41.266 34.697,-87.709 36.111,-134.61c0.457,-15.945 4.677,-31.433 12.66,-45.507c7.984,-14.053 19.23,-25.778 32.826,-33.762c39.874,-24.385 74.114,-58.625 98.5,-98.499c8.461,-13.595 20.186,-24.864 33.782,-32.825c14.074,-7.984 29.541,-12.683 45.486,-12.683c46.9,-1.392 93.344,-13.596 134.631,-36.11c14.053,-7.505 30.02,-11.725 45.965,-11.725c15.946,0 31.891,4.22 45.965,11.725c41.266,22.514 87.709,34.718 134.609,36.11c15.946,0.479 31.412,4.699 45.487,12.683c14.074,7.961 25.799,19.23 33.783,32.825c24.385,39.874 58.625,74.114 98.499,98.499c13.595,8.44 24.864,20.165 32.825,33.762c7.984,14.074 12.661,29.562 12.661,45.507c1.414,46.901 13.617,93.344 36.132,134.61c7.505,14.074 11.725,30.02 11.725,45.965c0,15.945 -4.22,31.89 -11.725,45.964c-22.515,41.31 -34.718,87.732 -36.132,134.632c-0.457,15.945 -4.677,31.411 -12.661,45.486c-7.961,14.074 -19.23,25.799 -32.825,33.761c-39.874,24.407 -74.114,58.647 -98.499,98.521c-8.44,13.596 -20.166,24.842 -33.783,32.826c-14.075,7.961 -29.541,12.66 -45.487,12.66c-46.9,1.414 -93.343,13.596 -134.609,36.111c-14.074,7.504 -30.019,11.725 -45.965,11.725c-15.945,0 -31.912,-4.221 -45.965,-11.725c-41.287,-22.515 -87.731,-34.697 -134.631,-36.111c-15.945,-0.478 -31.412,-4.699 -45.486,-12.66c-14.075,-7.984 -25.8,-19.23 -33.782,-32.826c-24.386,-39.874 -58.626,-74.114 -98.5,-98.521c-13.596,-8.44 -24.842,-20.165 -32.826,-33.761c-7.983,-14.075 -12.66,-29.541 -12.66,-45.486c-1.414,-46.9 -13.596,-93.322 -36.111,-134.632c-7.505,-14.074 -11.725,-30.019 -11.725,-45.964c0,-15.945 4.22,-31.891 11.725,-45.965Zm-11.268,227.496c0.479,23.907 7.048,47.357 19.23,68.001c11.725,20.644 29.084,38.003 49.25,50.663c33.783,20.623 62.388,49.25 83.032,83.011c12.182,20.166 29.998,37.525 50.642,49.25c20.644,11.725 44.094,18.773 68.022,19.23c39.396,0.935 78.791,11.725 113.509,30.498c21.101,11.246 44.551,17.359 68.48,17.359c23.907,0 47.357,-6.113 68.479,-17.359c34.697,-18.773 73.635,-29.563 113.509,-30.498c23.907,-0.457 47.357,-7.027 68.001,-19.23c20.644,-11.725 38.003,-29.084 50.664,-49.25c20.643,-33.761 49.249,-62.388 83.01,-83.011c20.165,-12.203 37.524,-30.019 49.249,-50.663c11.726,-20.644 18.774,-44.094 19.23,-68.001c0.936,-39.395 11.726,-78.79 30.499,-113.509c11.246,-21.122 17.359,-44.572 17.359,-68.479c0,-23.929 -6.113,-47.379 -17.359,-68.479c-18.773,-34.719 -29.563,-73.657 -30.499,-113.509c-0.456,-23.929 -7.026,-47.379 -19.23,-68.023c-11.725,-20.644 -29.084,-37.981 -49.249,-50.663c-33.761,-20.622 -62.367,-49.25 -83.01,-83.011c-12.204,-20.166 -30.02,-37.525 -50.664,-49.25c-20.644,-11.725 -44.094,-18.751 -68.001,-19.23c-39.395,-0.935 -78.812,-11.724 -113.509,-30.498c-21.122,-11.246 -44.572,-17.337 -68.479,-17.337c-23.929,0 -47.379,6.091 -68.48,17.337c-34.718,18.774 -73.656,29.563 -113.509,30.498c-23.928,0.479 -47.378,7.027 -68.022,19.23c-20.644,11.725 -37.981,29.084 -50.642,49.25c-20.644,33.761 -49.249,62.389 -83.032,83.011c-20.166,12.203 -37.525,30.019 -49.25,50.663c-11.725,20.644 -18.751,44.094 -19.23,68.023c-0.935,39.395 -11.725,78.79 -30.476,113.509c-11.268,21.1 -17.359,44.55 -17.359,68.479c0,23.907 6.091,47.357 17.359,68.479c18.751,35.197 29.541,74.114 30.476,113.509Z" style="fill-rule:nonzero;"/><path d="M329.737,273.439c28.496,0 51.599,23.102 51.599,51.599c0,28.497 -23.103,51.599 -51.599,51.599c-28.497,0 -51.6,-23.102 -51.6,-51.599c0,-28.497 23.103,-51.599 51.6,-51.599Z" style="fill-rule:nonzero;"/><path d="M217.62,424.016c21.253,0 38.481,17.206 38.481,38.46c0,21.231 -17.228,38.459 -38.481,38.459c-21.231,0 -38.46,-17.228 -38.46,-38.459c0,-21.254 17.229,-38.46 38.46,-38.46Z" style="fill-rule:nonzero;"/><path d="M573.156,470.437c30.063,0 54.427,24.364 54.427,54.405c0,30.085 -24.364,54.449 -54.427,54.449c-30.041,0 -54.405,-24.364 -54.405,-54.449c0,-30.041 24.364,-54.405 54.405,-54.405Z" style="fill-rule:nonzero;"/><path d="M826.451,423.537c18.121,0 32.826,14.705 32.826,32.826c0,18.142 -14.705,32.847 -32.826,32.847c-18.141,0 -32.847,-14.705 -32.847,-32.847c0,-18.121 14.706,-32.826 32.847,-32.826Z" style="fill-rule:nonzero;"/><path d="M529.541,664.15c21.753,0 39.395,17.643 39.395,39.417c0,21.754 -17.642,39.396 -39.395,39.396c-21.754,0 -39.396,-17.642 -39.396,-39.396c0,-21.774 17.642,-39.417 39.396,-39.417Z" style="fill-rule:nonzero;"/><path d="M529.541,281.422c28.236,0 51.12,22.885 51.12,51.121c0,28.236 -22.884,51.12 -51.12,51.12c-28.236,0 -51.121,-22.884 -51.121,-51.12c0,-28.236 22.885,-51.121 51.121,-51.121Z" style="fill-rule:nonzero;"/><path d="M491.081,124.755c15.553,0 28.149,12.596 28.149,28.149c0,15.532 -12.596,28.149 -28.149,28.149c-15.532,0 -28.149,-12.617 -28.149,-28.149c0,-15.553 12.617,-28.149 28.149,-28.149Z" style="fill-rule:nonzero;"/><path d="M171.655,279.552c11.921,0 21.58,9.658 21.58,21.557c0,11.921 -9.659,21.58 -21.58,21.58c-11.899,0 -21.557,-9.659 -21.557,-21.58c0,-11.899 9.658,-21.557 21.557,-21.557Z" style="fill-rule:nonzero;"/><path d="M497.172,825.517c13.226,0 23.928,10.702 23.928,23.906c0,13.205 -10.702,23.929 -23.928,23.929c-13.205,0 -23.907,-10.724 -23.907,-23.929c0,-13.204 10.702,-23.906 23.907,-23.906Z" style="fill-rule:nonzero;"/><path d="M344.746,638.373c22.015,0 39.852,17.837 39.852,39.852c0,22.014 -17.837,39.874 -39.852,39.874c-22.014,0 -39.874,-17.86 -39.874,-39.874c0,-22.015 17.86,-39.852 39.874,-39.852Z" style="fill-rule:nonzero;"/><path d="M372.417,783.294c14.509,0 26.256,11.768 26.256,26.255c0,14.51 -11.747,26.279 -26.256,26.279c-14.51,0 -26.278,-11.769 -26.278,-26.279c0,-14.487 11.768,-26.255 26.278,-26.255Z" style="fill-rule:nonzero;"/><path d="M661.344,796.432c13.466,0 24.385,10.92 24.385,24.386c0,13.465 -10.919,24.385 -24.385,24.385c-13.465,0 -24.386,-10.92 -24.386,-24.385c0,-13.466 10.921,-24.386 24.386,-24.386Z" style="fill-rule:nonzero;"/><path d="M178.225,653.383c14.248,0 25.799,11.529 25.799,25.777c0,14.249 -11.551,25.8 -25.799,25.8c-14.249,0 -25.8,-11.551 -25.8,-25.8c0,-14.248 11.551,-25.777 25.8,-25.777Z" style="fill-rule:nonzero;"/><path d="M381.792,492.952c12.182,0 22.058,9.876 22.058,22.058c0,12.16 -9.876,22.036 -22.058,22.036c-12.181,0 -22.036,-9.876 -22.036,-22.036c0,-12.182 9.855,-22.058 22.036,-22.058Z" style="fill-rule:nonzero;"/><path d="M689.95,370.546c17.098,0 30.955,13.857 30.955,30.955c0,17.098 -13.857,30.955 -30.955,30.955c-17.098,0 -30.956,-13.857 -30.956,-30.955c0,-17.098 13.858,-30.955 30.956,-30.955Z" style="fill-rule:nonzero;"/><path d="M771.09,629.454c19.447,0 35.197,15.771 35.197,35.175c0,19.426 -15.75,35.175 -35.197,35.175c-19.426,0 -35.176,-15.749 -35.176,-35.175c0,-19.404 15.75,-35.175 35.176,-35.175Z" style="fill-rule:nonzero;"/><path d="M697.454,189.015c13.988,0 25.343,11.333 25.343,25.321c0,14.008 -11.355,25.342 -25.343,25.342c-13.987,0 -25.32,-11.334 -25.32,-25.342c0,-13.988 11.333,-25.321 25.32,-25.321Z" style="fill-rule:nonzero;"/></g></svg>