<?xml version="1.0" encoding="UTF-8" standalone="no"?><!DOCTYPE svg PUBLIC "-//W3C//DTD SVG 1.1//EN" "http://www.w3.org/Graphics/SVG/1.1/DTD/svg11.dtd"><svg width="100%" height="100%" viewBox="0 0 1001 1001" version="1.1" xmlns="http://www.w3.org/2000/svg" xmlns:xlink="http://www.w3.org/1999/xlink" xml:space="preserve" xmlns:serif="http://www.serif.com/" style="fill-rule:evenodd;clip-rule:evenodd;stroke-linejoin:round;stroke-miterlimit:2;"><rect id="Complete-Cookie-Consent" serif:id="Complete Cookie Consent" x="0.109" y="0.172" width="1000" height="1000" style="fill:none;"/><path d="M995.109,401.172c0,-218.558 -177.441,-396 -396,-396l-198,0c-218.558,0 -396,177.442 -396,396l0,198c0,218.558 177.442,396 396,396l198,0c218.559,0 396,-177.442 396,-396l0,-198Z"/><g><path d="M185.774,467.727c16.051,-29.42 24.736,-62.532 25.745,-95.969c0.325,-11.368 3.334,-22.41 9.026,-32.445c5.692,-10.019 13.71,-18.378 23.403,-24.07c28.428,-17.385 52.839,-41.796 70.224,-70.224c6.033,-9.693 14.392,-17.727 24.085,-23.403c10.035,-5.692 21.062,-9.042 32.43,-9.042c33.437,-0.992 66.549,-9.693 95.984,-25.745c10.019,-5.35 21.403,-8.359 32.771,-8.359c11.368,0 22.736,3.009 32.77,8.359c29.421,16.052 62.532,24.753 95.969,25.745c11.369,0.341 22.395,3.35 32.43,9.042c10.034,5.676 18.393,13.71 24.085,23.403c17.386,28.428 41.797,52.839 70.224,70.224c9.693,6.018 17.727,14.377 23.403,24.07c5.692,10.035 9.027,21.077 9.027,32.445c1.008,33.437 9.708,66.549 25.76,95.969c5.351,10.035 8.359,21.403 8.359,32.771c0,11.368 -3.008,22.736 -8.359,32.77c-16.052,29.451 -24.752,62.548 -25.76,95.985c-0.326,11.368 -3.335,22.395 -9.027,32.429c-5.676,10.034 -13.71,18.394 -23.403,24.07c-28.427,17.401 -52.838,41.812 -70.224,70.24c-6.017,9.693 -14.377,17.711 -24.085,23.403c-10.035,5.676 -21.061,9.026 -32.43,9.026c-33.437,1.008 -66.548,9.693 -95.969,25.745c-10.034,5.35 -21.402,8.359 -32.77,8.359c-11.368,0 -22.752,-3.009 -32.771,-8.359c-29.435,-16.052 -62.547,-24.737 -95.984,-25.745c-11.368,-0.341 -22.395,-3.35 -32.43,-9.026c-10.034,-5.692 -18.393,-13.71 -24.085,-23.403c-17.385,-28.428 -41.796,-52.839 -70.224,-70.24c-9.693,-6.018 -17.711,-14.377 -23.403,-24.07c-5.692,-10.034 -9.026,-21.061 -9.026,-32.429c-1.009,-33.437 -9.694,-66.534 -25.745,-95.985c-5.351,-10.034 -8.36,-21.402 -8.36,-32.77c0,-11.368 3.009,-22.736 8.36,-32.771Zm-8.034,162.193c0.341,17.044 5.025,33.763 13.71,48.481c8.359,14.718 20.735,27.094 35.112,36.12c24.086,14.702 44.48,35.112 59.198,59.182c8.685,14.377 21.387,26.753 36.104,35.112c14.719,8.359 31.437,13.384 48.497,13.71c28.087,0.667 56.174,8.359 80.925,21.743c15.044,8.019 31.763,12.377 48.823,12.377c17.044,0 33.763,-4.358 48.822,-12.377c24.737,-13.384 52.497,-21.076 80.925,-21.743c17.045,-0.326 33.763,-5.009 48.481,-13.71c14.719,-8.359 27.095,-20.735 36.121,-35.112c14.717,-24.07 35.112,-44.48 59.182,-59.182c14.376,-8.701 26.753,-21.402 35.112,-36.12c8.359,-14.718 13.384,-31.437 13.71,-48.481c0.667,-28.087 8.359,-56.174 21.744,-80.926c8.018,-15.059 12.376,-31.778 12.376,-48.822c0,-17.06 -4.358,-33.778 -12.376,-48.822c-13.385,-24.753 -21.077,-52.513 -21.744,-80.926c-0.326,-17.06 -5.009,-33.778 -13.71,-48.496c-8.359,-14.718 -20.736,-27.079 -35.112,-36.12c-24.07,-14.703 -44.465,-35.113 -59.182,-59.183c-8.701,-14.376 -21.402,-26.753 -36.121,-35.112c-14.718,-8.359 -31.436,-13.369 -48.481,-13.71c-28.086,-0.667 -56.188,-8.359 -80.925,-21.743c-15.059,-8.018 -31.778,-12.361 -48.822,-12.361c-17.06,0 -33.779,4.343 -48.823,12.361c-24.751,13.384 -52.513,21.076 -80.925,21.743c-17.06,0.341 -33.778,5.01 -48.497,13.71c-14.717,8.359 -27.078,20.736 -36.104,35.112c-14.718,24.07 -35.112,44.48 -59.198,59.183c-14.377,8.7 -26.753,21.402 -35.112,36.12c-8.359,14.718 -13.369,31.436 -13.71,48.496c-0.667,28.087 -8.359,56.173 -21.728,80.926c-8.033,15.044 -12.376,31.762 -12.376,48.822c0,17.044 4.343,33.763 12.376,48.822c13.369,25.094 21.061,52.839 21.728,80.926Z" style="fill:#fff;fill-rule:nonzero;"/><path d="M378.72,338.646c20.317,0 36.788,16.471 36.788,36.788c0,20.316 -16.471,36.787 -36.788,36.787c-20.316,0 -36.787,-16.471 -36.787,-36.787c0,-20.317 16.471,-36.788 36.787,-36.788Z" style="fill:#fff;fill-rule:nonzero;"/><path d="M298.788,445.999c15.152,0 27.435,12.268 27.435,27.42c0,15.137 -12.283,27.42 -27.435,27.42c-15.137,0 -27.42,-12.283 -27.42,-27.42c0,-15.152 12.283,-27.42 27.42,-27.42Z" style="fill:#fff;fill-rule:nonzero;"/><path d="M552.265,479.095c21.434,0 38.803,17.37 38.803,38.788c0,21.449 -17.369,38.819 -38.803,38.819c-21.418,0 -38.788,-17.37 -38.788,-38.819c0,-21.418 17.37,-38.788 38.788,-38.788Z" style="fill:#fff;fill-rule:nonzero;"/><path d="M732.851,445.658c12.919,0 23.403,10.484 23.403,23.403c0,12.934 -10.484,23.418 -23.403,23.418c-12.934,0 -23.418,-10.484 -23.418,-23.418c0,-12.919 10.484,-23.403 23.418,-23.403Z" style="fill:#fff;fill-rule:nonzero;"/><path d="M521.17,617.202c15.509,0 28.087,12.578 28.087,28.102c0,15.509 -12.578,28.087 -28.087,28.087c-15.509,0 -28.087,-12.578 -28.087,-28.087c0,-15.524 12.578,-28.102 28.087,-28.102Z" style="fill:#fff;fill-rule:nonzero;"/><path d="M521.17,344.338c20.131,0 36.446,16.316 36.446,36.446c0,20.131 -16.315,36.446 -36.446,36.446c-20.131,0 -36.446,-16.315 -36.446,-36.446c0,-20.13 16.315,-36.446 36.446,-36.446Z" style="fill:#fff;fill-rule:nonzero;"/><path d="M493.75,232.643c11.089,0 20.069,8.98 20.069,20.068c0,11.074 -8.98,20.069 -20.069,20.069c-11.073,0 -20.069,-8.995 -20.069,-20.069c0,-11.088 8.996,-20.068 20.069,-20.068Z" style="fill:#fff;fill-rule:nonzero;"/><path d="M266.017,343.004c8.499,0 15.385,6.886 15.385,15.37c0,8.499 -6.886,15.385 -15.385,15.385c-8.483,0 -15.369,-6.886 -15.369,-15.385c0,-8.484 6.886,-15.37 15.369,-15.37Z" style="fill:#fff;fill-rule:nonzero;"/><path d="M498.093,732.248c9.429,0 17.059,7.63 17.059,17.044c0,9.414 -7.63,17.06 -17.059,17.06c-9.414,0 -17.045,-7.646 -17.045,-17.06c0,-9.414 7.631,-17.044 17.045,-17.044Z" style="fill:#fff;fill-rule:nonzero;"/><path d="M389.422,598.824c15.695,0 28.412,12.718 28.412,28.413c0,15.695 -12.717,28.427 -28.412,28.427c-15.695,0 -28.428,-12.732 -28.428,-28.427c0,-15.695 12.733,-28.413 28.428,-28.413Z" style="fill:#fff;fill-rule:nonzero;"/><path d="M409.149,702.145c10.344,0 18.719,8.39 18.719,18.719c0,10.344 -8.375,18.735 -18.719,18.735c-10.344,0 -18.735,-8.391 -18.735,-18.735c0,-10.329 8.391,-18.719 18.735,-18.719Z" style="fill:#fff;fill-rule:nonzero;"/><path d="M615.138,711.512c9.601,0 17.386,7.786 17.386,17.386c0,9.6 -7.785,17.385 -17.386,17.385c-9.599,0 -17.385,-7.785 -17.385,-17.385c0,-9.6 7.786,-17.386 17.385,-17.386Z" style="fill:#fff;fill-rule:nonzero;"/><path d="M270.701,609.526c10.158,0 18.393,8.219 18.393,18.378c0,10.158 -8.235,18.393 -18.393,18.393c-10.159,0 -18.394,-8.235 -18.394,-18.393c0,-10.159 8.235,-18.378 18.394,-18.378Z" style="fill:#fff;fill-rule:nonzero;"/><path d="M415.833,495.147c8.685,0 15.727,7.041 15.727,15.726c0,8.67 -7.042,15.711 -15.727,15.711c-8.685,0 -15.71,-7.041 -15.71,-15.711c0,-8.685 7.025,-15.726 15.71,-15.726Z" style="fill:#fff;fill-rule:nonzero;"/><path d="M635.533,407.878c12.19,0 22.069,9.879 22.069,22.069c0,12.19 -9.879,22.07 -22.069,22.07c-12.19,0 -22.07,-9.88 -22.07,-22.07c0,-12.19 9.88,-22.069 22.07,-22.069Z" style="fill:#fff;fill-rule:nonzero;"/><path d="M693.381,592.466c13.865,0 25.094,11.244 25.094,25.078c0,13.849 -11.229,25.077 -25.094,25.077c-13.849,0 -25.078,-11.228 -25.078,-25.077c0,-13.834 11.229,-25.078 25.078,-25.078Z" style="fill:#fff;fill-rule:nonzero;"/><path d="M640.883,278.456c9.973,0 18.068,8.08 18.068,18.053c0,9.987 -8.095,18.067 -18.068,18.067c-9.972,0 -18.052,-8.08 -18.052,-18.067c0,-9.973 8.08,-18.053 18.052,-18.053Z" style="fill:#fff;fill-rule:nonzero;"/></g></svg>