<?xml version="1.0" encoding="UTF-8" standalone="no"?><!DOCTYPE svg PUBLIC "-//W3C//DTD SVG 1.1//EN" "http://www.w3.org/Graphics/SVG/1.1/DTD/svg11.dtd"><svg width="100%" height="100%" viewBox="0 0 1001 1001" version="1.1" xmlns="http://www.w3.org/2000/svg" xmlns:xlink="http://www.w3.org/1999/xlink" xml:space="preserve" xmlns:serif="http://www.serif.com/" style="fill-rule:evenodd;clip-rule:evenodd;stroke-linejoin:round;stroke-miterlimit:2;"><rect id="Complete-Cookie-Consent" serif:id="Complete Cookie Consent" x="0.109" y="0.172" width="1000" height="1000" style="fill:none;"/><g><path d="M63.622,455.119c22.289,-40.853 34.349,-86.833 35.75,-133.263c0.451,-15.786 4.63,-31.119 12.534,-45.054c7.903,-13.912 19.037,-25.519 32.497,-33.423c39.475,-24.141 73.372,-58.038 97.513,-97.514c8.378,-13.459 19.985,-24.616 33.445,-32.497c13.935,-7.904 29.247,-12.556 45.032,-12.556c46.431,-1.378 92.411,-13.46 133.284,-35.75c13.913,-7.429 29.72,-11.607 45.506,-11.607c15.786,0 31.571,4.178 45.505,11.607c40.854,22.29 86.832,34.372 133.263,35.75c15.787,0.474 31.097,4.652 45.032,12.556c13.933,7.881 25.541,19.038 33.445,32.497c24.142,39.476 58.039,73.373 97.513,97.514c13.46,8.356 24.616,19.964 32.498,33.423c7.903,13.935 12.534,29.268 12.534,45.054c1.4,46.43 13.481,92.41 35.771,133.263c7.43,13.934 11.607,29.72 11.607,45.506c0,15.785 -4.177,31.571 -11.607,45.504c-22.29,40.896 -34.371,86.855 -35.771,133.285c-0.452,15.786 -4.631,31.098 -12.534,45.031c-7.882,13.934 -19.038,25.542 -32.498,33.424c-39.474,24.163 -73.371,58.06 -97.513,97.536c-8.356,13.459 -19.964,24.593 -33.445,32.497c-13.935,7.882 -29.245,12.534 -45.032,12.534c-46.431,1.399 -92.409,13.459 -133.263,35.749c-13.934,7.429 -29.719,11.608 -45.505,11.608c-15.786,0 -31.593,-4.179 -45.506,-11.608c-40.873,-22.29 -86.853,-34.35 -133.284,-35.749c-15.785,-0.474 -31.097,-4.652 -45.032,-12.534c-13.933,-7.904 -25.541,-19.038 -33.445,-32.497c-24.141,-39.476 -58.038,-73.373 -97.513,-97.536c-13.46,-8.357 -24.594,-19.964 -32.497,-33.424c-7.904,-13.933 -12.534,-29.245 -12.534,-45.031c-1.401,-46.43 -13.461,-92.389 -35.75,-133.285c-7.43,-13.933 -11.608,-29.719 -11.608,-45.504c0,-15.786 4.178,-31.572 11.608,-45.506Zm-11.156,225.222c0.474,23.667 6.978,46.883 19.038,67.32c11.607,20.438 28.793,37.623 48.757,50.157c33.446,20.415 61.765,48.757 82.202,82.18c12.06,19.964 29.698,37.15 50.135,48.757c20.438,11.607 43.653,18.585 67.343,19.038c39.001,0.926 78.003,11.607 112.372,30.192c20.891,11.135 44.107,17.187 67.796,17.187c23.668,0 46.884,-6.052 67.795,-17.187c34.35,-18.585 72.897,-29.266 112.373,-30.192c23.668,-0.453 46.883,-6.956 67.321,-19.038c20.438,-11.607 37.624,-28.793 50.157,-48.757c20.436,-33.423 48.757,-61.765 82.181,-82.18c19.962,-12.082 37.149,-29.719 48.756,-50.157c11.608,-20.437 18.585,-43.653 19.038,-67.32c0.926,-39.002 11.607,-78.004 30.194,-112.375c11.134,-20.911 17.185,-44.127 17.185,-67.794c0,-23.69 -6.051,-46.904 -17.185,-67.795c-18.587,-34.372 -29.268,-72.919 -30.194,-112.374c-0.453,-23.689 -6.955,-46.904 -19.038,-67.342c-11.607,-20.437 -28.794,-37.602 -48.756,-50.156c-33.424,-20.417 -61.745,-48.758 -82.181,-82.182c-12.082,-19.962 -29.719,-37.149 -50.157,-48.756c-20.438,-11.608 -43.653,-18.565 -67.321,-19.038c-39.001,-0.926 -78.023,-11.608 -112.373,-30.193c-20.911,-11.133 -44.127,-17.164 -67.795,-17.164c-23.689,0 -46.905,6.031 -67.796,17.164c-34.369,18.585 -72.919,29.267 -112.372,30.193c-23.69,0.473 -46.905,6.957 -67.343,19.038c-20.437,11.607 -37.601,28.794 -50.135,48.756c-20.437,33.424 -48.756,61.765 -82.202,82.182c-19.964,12.081 -37.15,29.719 -48.757,50.156c-11.607,20.438 -18.564,43.653 -19.038,67.342c-0.926,39.002 -11.607,78.002 -30.171,112.374c-11.155,20.891 -17.186,44.105 -17.186,67.795c0,23.667 6.031,46.883 17.186,67.794c18.564,34.846 29.245,73.373 30.171,112.375Z" style="fill-rule:nonzero;"/><path d="M331.548,275.876c28.212,0 51.084,22.872 51.084,51.084c0,28.211 -22.872,51.083 -51.084,51.083c-28.211,0 -51.083,-22.872 -51.083,-51.083c0,-28.212 22.872,-51.084 51.083,-51.084Z" style="fill-rule:nonzero;"/><path d="M220.554,424.947c21.04,0 38.096,17.035 38.096,38.076c0,21.019 -17.056,38.075 -38.096,38.075c-21.019,0 -38.075,-17.056 -38.075,-38.075c0,-21.041 17.056,-38.076 38.075,-38.076Z" style="fill-rule:nonzero;"/><path d="M572.533,470.904c29.764,0 53.882,24.12 53.882,53.861c0,29.785 -24.118,53.905 -53.882,53.905c-29.741,0 -53.861,-24.12 -53.861,-53.905c0,-29.741 24.12,-53.861 53.861,-53.861Z" style="fill-rule:nonzero;"/><path d="M823.296,424.473c17.939,0 32.497,14.559 32.497,32.498c0,17.96 -14.558,32.518 -32.497,32.518c-17.96,0 -32.518,-14.558 -32.518,-32.518c0,-17.939 14.558,-32.498 32.518,-32.498Z" style="fill-rule:nonzero;"/><path d="M529.355,662.68c21.536,0 39.001,17.466 39.001,39.023c0,21.536 -17.465,39.002 -39.001,39.002c-21.536,0 -39.002,-17.466 -39.002,-39.002c0,-21.557 17.466,-39.023 39.002,-39.023Z" style="fill-rule:nonzero;"/><path d="M529.355,283.78c27.954,0 50.609,22.657 50.609,50.609c0,27.954 -22.655,50.609 -50.609,50.609c-27.954,0 -50.609,-22.655 -50.609,-50.609c0,-27.952 22.655,-50.609 50.609,-50.609Z" style="fill-rule:nonzero;"/><path d="M491.279,128.68c15.398,0 27.868,12.47 27.868,27.866c0,15.378 -12.47,27.868 -27.868,27.868c-15.376,0 -27.868,-12.49 -27.868,-27.868c0,-15.396 12.492,-27.866 27.868,-27.866Z" style="fill-rule:nonzero;"/><path d="M175.048,281.928c11.802,0 21.364,9.562 21.364,21.343c0,11.801 -9.562,21.363 -21.364,21.363c-11.779,0 -21.341,-9.562 -21.341,-21.363c0,-11.781 9.562,-21.343 21.341,-21.343Z" style="fill-rule:nonzero;"/><path d="M497.31,822.434c13.093,0 23.688,10.595 23.688,23.667c0,13.072 -10.595,23.69 -23.688,23.69c-13.072,0 -23.669,-10.618 -23.669,-23.69c0,-13.072 10.597,-23.667 23.669,-23.667Z" style="fill-rule:nonzero;"/><path d="M346.409,637.16c21.794,0 39.453,17.661 39.453,39.455c0,21.794 -17.659,39.474 -39.453,39.474c-21.794,0 -39.475,-17.68 -39.475,-39.474c0,-21.794 17.681,-39.455 39.475,-39.455Z" style="fill-rule:nonzero;"/><path d="M373.802,780.632c14.364,0 25.993,11.651 25.993,25.994c0,14.363 -11.629,26.015 -25.993,26.015c-14.364,0 -26.016,-11.652 -26.016,-26.015c0,-14.343 11.652,-25.994 26.016,-25.994Z" style="fill-rule:nonzero;"/><path d="M659.839,793.64c13.332,0 24.142,10.811 24.142,24.142c0,13.33 -10.81,24.141 -24.142,24.141c-13.329,0 -24.141,-10.811 -24.141,-24.141c0,-13.331 10.812,-24.142 24.141,-24.142Z" style="fill-rule:nonzero;"/><path d="M181.552,652.021c14.106,0 25.541,11.413 25.541,25.52c0,14.106 -11.435,25.541 -25.541,25.541c-14.106,0 -25.542,-11.435 -25.542,-25.541c0,-14.107 11.436,-25.52 25.542,-25.52Z" style="fill-rule:nonzero;"/><path d="M383.083,493.194c12.06,0 21.839,9.777 21.839,21.837c0,12.04 -9.779,21.817 -21.839,21.817c-12.06,0 -21.815,-9.777 -21.815,-21.817c0,-12.06 9.755,-21.837 21.815,-21.837Z" style="fill-rule:nonzero;"/><path d="M688.16,372.012c16.927,0 30.645,13.718 30.645,30.645c0,16.927 -13.718,30.647 -30.645,30.647c-16.927,0 -30.647,-13.72 -30.647,-30.647c0,-16.927 13.72,-30.645 30.647,-30.645Z" style="fill-rule:nonzero;"/><path d="M768.488,628.332c19.253,0 34.845,15.613 34.845,34.823c0,19.231 -15.592,34.822 -34.845,34.822c-19.231,0 -34.824,-15.591 -34.824,-34.822c0,-19.21 15.593,-34.823 34.824,-34.823Z" style="fill-rule:nonzero;"/><path d="M695.589,192.296c13.848,0 25.089,11.22 25.089,25.069c0,13.867 -11.241,25.087 -25.089,25.087c-13.847,0 -25.067,-11.22 -25.067,-25.087c0,-13.849 11.22,-25.069 25.067,-25.069Z" style="fill-rule:nonzero;"/></g></svg>